<?xml version="1.0" encoding="UTF-8" standalone="no"?>
<!-- Created with Inkscape (http://www.inkscape.org/) -->

<svg
   width="830"
   height="266"
   viewBox="0 0 219.60414 70.379162"
   version="1.1"
   id="svg5"
   xmlns="http://www.w3.org/2000/svg"
   xmlns:svg="http://www.w3.org/2000/svg">
  <defs
     id="defs2">
    <rect
       x="152.29703"
       y="111.54279"
       width="286.52628"
       height="112.65167"
       id="rect3430-36" />
    <rect
       x="152.29703"
       y="111.54279"
       width="286.52628"
       height="112.65167"
       id="rect3430-3-5-5" />
    <rect
       x="152.29703"
       y="111.54279"
       width="286.52628"
       height="112.65167"
       id="rect3430-3-56" />
    <rect
       x="152.29703"
       y="111.54279"
       width="286.52628"
       height="112.65167"
       id="rect3430-3-7-9" />
    <rect
       x="152.29703"
       y="111.54279"
       width="286.52628"
       height="112.65167"
       id="rect3430-3-7-9-3" />
  </defs>
  <g
     id="layer2"
     style="display:inline"
     transform="translate(5.1981869,-15.941408)">
    <rect
       style="fill:#fafafa;fill-opacity:1;stroke:none;stroke-width:0.472679"
       id="rect2260"
       width="242.31705"
       height="88.205635"
       x="-17.267948"
       y="8.1596718"
       ry="0" />
  </g>
  <g
     id="layer1"
     transform="translate(5.4306818,-15.708911)"
     style="display:inline">
    <rect
       style="fill:#464646;fill-opacity:1;stroke:none;stroke-width:0.294528"
       id="rect3486"
       width="42.172081"
       height="10.555671"
       x="7.6120834"
       y="48.004009"
       ry="3.4102981" />
    <g
       aria-label="Game server"
       transform="matrix(0.26458333,0,0,0.26458333,-27.785331,20.475907)"
       id="text3428-7"
       style="font-size:21.3333px;font-family:'Latin Modern Sans';-inkscape-font-specification:'Latin Modern Sans';white-space:pre;shape-inside:url(#rect3430-36);display:inline;fill:#fafafa;stroke-width:0">
      <path
         d="m 166.33419,130.33761 v -5.58933 c 0,-0.14933 -0.10667,-0.27733 -0.256,-0.27733 h -4.416 c -0.14933,0 -0.256,0.128 -0.256,0.27733 v 1.472 c 0,0.14933 0.10667,0.27733 0.256,0.27733 h 1.77067 v 2.77333 c -0.66133,0.14933 -1.344,0.23467 -2.02667,0.23467 -1.32266,0 -2.64533,-0.36267 -3.49866,-1.344 -0.96,-1.13067 -1.17333,-2.66666 -1.17333,-4.15999 0,-1.49334 0.21333,-3.02933 1.17333,-4.16 0.85333,-1.00266 2.176,-1.36533 3.49866,-1.36533 0.72534,0 1.45067,0.10667 2.112,0.384 0.68267,0.27733 1.25867,0.74667 1.77066,1.25867 0.0427,0.0427 0.10667,0.0853 0.192,0.0853 0.128,0 0.23467,-0.10667 0.256,-0.23467 l 0.40534,-2.26133 c 0,-0.14933 -0.064,-0.256 -0.14934,-0.29866 -0.704,-0.34134 -1.45066,-0.64 -2.23999,-0.81067 -0.768,-0.192 -1.55733,-0.256 -2.34667,-0.256 -2.13333,0 -4.33066,0.448 -5.84532,1.92 -1.49333,1.472 -1.96266,3.62666 -1.96266,5.73866 0,2.09066 0.46933,4.24532 1.96266,5.71732 1.51466,1.49333 3.71199,1.92 5.84532,1.92 1.64267,0 3.28533,-0.36267 4.77866,-1.06667 0.0853,-0.0427 0.14934,-0.128 0.14934,-0.23466 z"
         style="font-weight:bold;-inkscape-font-specification:'Latin Modern Sans Bold'"
         id="path366" />
      <path
         d="m 178.04616,130.38027 v -5.71732 c 0,-3.37066 -3.24266,-3.392 -4.30932,-3.392 -1.00267,0 -2.06933,0.0853 -3.49866,0.68267 -0.448,0.192 -0.55467,0.256 -0.55467,0.49066 0,0.14934 0.128,1.38667 0.14933,1.55734 0.0213,0.128 0.128,0.23466 0.27734,0.23466 0.10666,0 0.17066,-0.064 0.23466,-0.128 0.91733,-0.96 1.984,-1.42933 3.30666,-1.42933 1.152,0 1.49333,0.704 1.49333,1.96266 v 0.74667 c -0.74666,0 -6.33599,0.0427 -6.33599,3.17866 0,1.49333 1.19467,3.072 3.072,3.072 0.72533,0 2.32533,-0.21334 3.32799,-1.68533 v 0.42666 c 0,0.68267 0.14934,1.024 1.024,1.024 h 0.78933 c 0.81067,0 1.024,-0.27733 1.024,-1.024 z m -2.90133,-2.26133 c 0,1.984 -2.02666,1.984 -2.09066,1.984 -0.896,0 -1.472,-0.768 -1.472,-1.57866 0,-2.09067 2.96533,-2.24 3.56266,-2.26133 z"
         style="font-weight:bold;-inkscape-font-specification:'Latin Modern Sans Bold'"
         id="path368" />
      <path
         d="m 196.32879,130.38027 v -5.90932 c 0,-2.19733 -0.93866,-3.072 -3.11466,-3.072 -1.51466,0 -2.68799,0.704 -3.45599,2.112 -0.34134,-2.048 -2.15467,-2.112 -3.05067,-2.112 -0.40533,0 -1.30133,0 -2.26133,0.704 -0.66133,0.49067 -1.08799,1.17333 -1.23733,1.49333 h -0.0213 v -1.06666 c 0,-0.68267 -0.14933,-1.024 -1.024,-1.024 h -0.72533 c -0.768,0 -1.024,0.23467 -1.024,1.024 v 7.85065 c 0,0.768 0.23467,1.024 1.024,1.024 h 0.85333 c 0.81067,0 1.024,-0.27733 1.024,-1.024 v -4.71466 c 0,-1.91999 1.30133,-2.73066 2.34666,-2.73066 1.024,0 1.25867,0.448 1.25867,1.57866 v 5.86666 c 0,0.768 0.23466,1.024 1.024,1.024 h 0.85333 c 0.81066,0 1.024,-0.27733 1.024,-1.024 v -4.71466 c 0,-1.91999 1.30133,-2.73066 2.34666,-2.73066 1.024,0 1.25866,0.448 1.25866,1.57866 v 5.86666 c 0,0.768 0.23467,1.024 1.024,1.024 h 0.85333 c 0.81067,0 1.024,-0.27733 1.024,-1.024 z"
         style="font-weight:bold;-inkscape-font-specification:'Latin Modern Sans Bold'"
         id="path370" />
      <path
         d="m 207.84879,125.85761 c 0,-2.75199 -1.28,-4.58666 -4.45866,-4.58666 -3.41333,0 -5.09866,1.92 -5.09866,5.16266 0,3.49866 2.02666,5.20533 5.37599,5.20533 0.81066,0 2.02666,-0.10667 3.43466,-0.81067 0.46933,-0.23466 0.61867,-0.29866 0.61867,-0.55466 0,-0.14934 -0.064,-0.768 -0.0853,-0.93867 -0.0853,-0.66133 -0.10666,-0.68266 -0.29866,-0.68266 -0.0853,0 -0.128,0 -0.36267,0.21333 -1.25866,1.088 -2.53866,1.23733 -3.22133,1.23733 -2.41066,0 -2.66666,-1.89866 -2.73066,-3.264 h 5.80266 c 0.49066,0 1.024,-0.0213 1.024,-0.98133 z m -2.368,-0.14933 h -4.43733 c 0.064,-1.30133 0.49067,-2.90133 2.34667,-2.90133 1.70666,0 2.02666,1.23733 2.09066,2.90133 z"
         style="font-weight:bold;-inkscape-font-specification:'Latin Modern Sans Bold'"
         id="path372" />
      <path
         d="m 224.80877,128.39628 c 0,-1.19467 -0.64,-1.94133 -1.024,-2.28267 -0.85333,-0.768 -1.6,-0.896 -2.496,-1.06666 -1.17333,-0.21334 -2.02666,-0.384 -2.02666,-1.216 0,-0.87467 0.704,-1.04533 1.536,-1.04533 1.42933,0 2.19732,0.53333 2.75199,1.00266 0.21333,0.21334 0.256,0.21334 0.34133,0.21334 0.21334,0 0.256,-0.192 0.27734,-0.27734 0.0427,-0.17066 0.256,-1.36533 0.256,-1.47199 0,-0.34134 -1.13067,-0.64 -1.36534,-0.72534 -0.85333,-0.23466 -1.53599,-0.256 -2.09066,-0.256 -0.96,0 -3.81866,0 -3.81866,3.05067 0,1.04533 0.46933,1.68533 1.04533,2.19733 0.74667,0.68266 1.57867,0.83199 2.79466,1.06666 0.61867,0.10667 1.70667,0.29867 1.70667,1.23733 0,1.00267 -0.832,1.152 -1.664,1.152 -0.93866,0 -2.13333,-0.27733 -3.13599,-1.472 -0.10667,-0.10666 -0.17067,-0.17066 -0.29867,-0.17066 -0.21333,0 -0.256,0.192 -0.27733,0.32 -0.0427,0.29866 -0.29867,1.51466 -0.29867,1.72799 0,0.384 1.6,0.896 1.6,0.896 1.17333,0.36267 2.048,0.36267 2.41066,0.36267 1.088,0 3.776,-0.0853 3.776,-3.24266 z"
         style="font-weight:bold;-inkscape-font-specification:'Latin Modern Sans Bold'"
         id="path374" />
      <path
         d="m 235.5821,125.85761 c 0,-2.75199 -1.28,-4.58666 -4.45866,-4.58666 -3.41333,0 -5.09866,1.92 -5.09866,5.16266 0,3.49866 2.02666,5.20533 5.37599,5.20533 0.81067,0 2.02667,-0.10667 3.43466,-0.81067 0.46934,-0.23466 0.61867,-0.29866 0.61867,-0.55466 0,-0.14934 -0.064,-0.768 -0.0853,-0.93867 -0.0853,-0.66133 -0.10667,-0.68266 -0.29867,-0.68266 -0.0853,0 -0.128,0 -0.36267,0.21333 -1.25866,1.088 -2.53866,1.23733 -3.22132,1.23733 -2.41067,0 -2.66667,-1.89866 -2.73067,-3.264 h 5.80266 c 0.49067,0 1.024,-0.0213 1.024,-0.98133 z m -2.368,-0.14933 h -4.43732 c 0.064,-1.30133 0.49066,-2.90133 2.34666,-2.90133 1.70666,0 2.02666,1.23733 2.09066,2.90133 z"
         style="font-weight:bold;-inkscape-font-specification:'Latin Modern Sans Bold'"
         id="path376" />
      <path
         d="m 243.85941,122.97762 v -1.00267 c 0,-0.42666 0,-0.576 -0.384,-0.576 -0.59733,0 -2.15466,0.21334 -3.15733,2.51733 h -0.0213 v -1.38666 c 0,-0.68267 -0.14933,-1.024 -1.024,-1.024 h -0.68267 c -0.76799,0 -1.02399,0.23467 -1.02399,1.024 v 7.85065 c 0,0.768 0.23466,1.024 1.02399,1.024 h 0.78934 c 0.81066,0 1.024,-0.27733 1.024,-1.024 v -3.88266 c 0,-2.02666 1.68533,-2.85866 3.02932,-2.94399 0.384,-0.0213 0.42667,-0.0213 0.42667,-0.576 z"
         style="font-weight:bold;-inkscape-font-specification:'Latin Modern Sans Bold'"
         id="path378" />
      <path
         d="m 254.2914,122.23095 c 0,-0.59733 -0.53334,-0.59733 -0.85334,-0.59733 h -0.448 c -0.89599,0 -1.13066,0.32 -1.32266,0.91733 l -2.112,6.44266 -2.11199,-6.44266 c -0.14934,-0.448 -0.29867,-0.91733 -1.32267,-0.91733 h -0.512 c -0.32,0 -0.85333,0 -0.85333,0.59733 0,0.064 0,0.10667 0.10667,0.40533 l 2.53866,7.87199 c 0.29867,0.896 0.96,0.896 1.344,0.896 h 1.55733 c 0.384,0 1.04533,0 1.344,-0.896 l 2.53866,-7.87199 c 0.10667,-0.29866 0.10667,-0.34133 0.10667,-0.40533 z"
         style="font-weight:bold;-inkscape-font-specification:'Latin Modern Sans Bold'"
         id="path380" />
      <path
         d="m 265.08604,125.85761 c 0,-2.75199 -1.27999,-4.58666 -4.45866,-4.58666 -3.41332,0 -5.09865,1.92 -5.09865,5.16266 0,3.49866 2.02666,5.20533 5.37599,5.20533 0.81066,0 2.02666,-0.10667 3.43466,-0.81067 0.46933,-0.23466 0.61866,-0.29866 0.61866,-0.55466 0,-0.14934 -0.064,-0.768 -0.0853,-0.93867 -0.0853,-0.66133 -0.10667,-0.68266 -0.29867,-0.68266 -0.0853,0 -0.12799,0 -0.36266,0.21333 -1.25867,1.088 -2.53866,1.23733 -3.22133,1.23733 -2.41066,0 -2.66666,-1.89866 -2.73066,-3.264 h 5.80266 c 0.49066,0 1.02399,-0.0213 1.02399,-0.98133 z m -2.36799,-0.14933 h -4.43733 c 0.064,-1.30133 0.49067,-2.90133 2.34666,-2.90133 1.70667,0 2.02667,1.23733 2.09067,2.90133 z"
         style="font-weight:bold;-inkscape-font-specification:'Latin Modern Sans Bold'"
         id="path382" />
      <path
         d="m 273.36335,122.97762 v -1.00267 c 0,-0.42666 0,-0.576 -0.384,-0.576 -0.59733,0 -2.15466,0.21334 -3.15732,2.51733 h -0.0213 v -1.38666 c 0,-0.68267 -0.14933,-1.024 -1.024,-1.024 h -0.68266 c -0.768,0 -1.024,0.23467 -1.024,1.024 v 7.85065 c 0,0.768 0.23467,1.024 1.024,1.024 h 0.78933 c 0.81067,0 1.024,-0.27733 1.024,-1.024 v -3.88266 c 0,-2.02666 1.68533,-2.85866 3.02933,-2.94399 0.384,-0.0213 0.42666,-0.0213 0.42666,-0.576 z"
         style="font-weight:bold;-inkscape-font-specification:'Latin Modern Sans Bold'"
         id="path384" />
    </g>
    <path
       style="display:inline;fill:none;stroke:#464646;stroke-width:0.8;stroke-linecap:round;stroke-linejoin:round;stroke-miterlimit:4.2;stroke-dasharray:none;paint-order:stroke fill markers"
       d="M 51.543634,53.281844 H 47.327242"
       id="path441" />
  </g>
  <g
     id="layer6"
     transform="translate(5.1981869,-15.941408)">
    <rect
       style="fill:none;fill-opacity:1;stroke:#13aa39;stroke-width:0.778532;stroke-dasharray:none;stroke-opacity:1"
       id="rect3486-6-3"
       width="34.47884"
       height="7.6324401"
       x="92.906242"
       y="68.262299"
       ry="2.4658685" />
    <g
       aria-label="New Game"
       transform="matrix(0.26458333,0,0,0.26458333,55.426091,39.272582)"
       id="text3428-1-5-3"
       style="font-size:21.3333px;font-family:'Latin Modern Sans';-inkscape-font-specification:'Latin Modern Sans';white-space:pre;shape-inside:url(#rect3430-3-5-5);display:inline;fill:#13aa39;stroke-width:0">
      <path
         d="m 167.27285,130.38027 v -12.75731 c 0,-0.68267 -0.14933,-1.024 -1.024,-1.024 h -0.576 c -0.81066,0 -1.02399,0.27733 -1.02399,1.024 v 11.19998 h -0.0213 l -5.86666,-11.37065 c -0.44799,-0.85333 -1.08799,-0.85333 -1.51466,-0.85333 h -1.984 c -0.768,0 -1.02399,0.23467 -1.02399,1.024 v 12.75731 c 0,0.768 0.23466,1.024 1.02399,1.024 h 0.576 c 0.81067,0 1.024,-0.27733 1.024,-1.024 v -11.19998 h 0.0213 l 5.86666,11.37065 c 0.448,0.85333 1.088,0.85333 1.51467,0.85333 h 1.98399 c 0.81067,0 1.024,-0.27733 1.024,-1.024 z"
         style="font-weight:bold;-inkscape-font-specification:'Latin Modern Sans Bold'"
         id="path396" />
      <path
         d="m 179.45418,125.85761 c 0,-2.75199 -1.28,-4.58666 -4.45866,-4.58666 -3.41333,0 -5.09866,1.92 -5.09866,5.16266 0,3.49866 2.02666,5.20533 5.37599,5.20533 0.81067,0 2.02667,-0.10667 3.43466,-0.81067 0.46934,-0.23466 0.61867,-0.29866 0.61867,-0.55466 0,-0.14934 -0.064,-0.768 -0.0853,-0.93867 -0.0853,-0.66133 -0.10667,-0.68266 -0.29867,-0.68266 -0.0853,0 -0.128,0 -0.36267,0.21333 -1.25866,1.088 -2.53866,1.23733 -3.22132,1.23733 -2.41067,0 -2.66667,-1.89866 -2.73067,-3.264 h 5.80266 c 0.49067,0 1.024,-0.0213 1.024,-0.98133 z m -2.368,-0.14933 h -4.43732 c 0.064,-1.30133 0.49066,-2.90133 2.34666,-2.90133 1.70666,0 2.02666,1.23733 2.09066,2.90133 z"
         style="font-weight:bold;-inkscape-font-specification:'Latin Modern Sans Bold'"
         id="path398" />
      <path
         d="m 195.47548,122.23095 c -0.064,-0.59733 -0.448,-0.59733 -1.10933,-0.59733 -1.00267,0 -1.25867,0.064 -1.55733,1.17333 l -1.728,6.18666 -1.81333,-6.39999 c -0.128,-0.46933 -0.27733,-0.96 -1.25867,-0.96 -0.31999,0 -0.81066,0 -1.10933,0.49067 -0.192,0.31999 -1.13066,4.01066 -1.87733,6.50665 l -1.70666,-6.03732 c -0.21333,-0.72533 -0.448,-0.96 -1.32267,-0.96 h -0.42666 c -0.40533,0 -0.85333,0 -0.91733,0.59733 l 2.26133,8.19199 c 0.27733,0.98133 0.83199,0.98133 1.36533,0.98133 h 0.59733 c 1.00266,0 1.17333,-0.32 1.408,-1.17333 0.49066,-1.77066 1.25866,-4.45866 1.344,-5.56799 l 0.0213,-0.0213 c 0.128,1.216 1.06666,4.58666 1.344,5.58933 0.23466,0.768 0.34133,1.17333 1.40799,1.17333 h 1.45067 c 0.91733,0 1.13066,-0.256 1.344,-0.98133 z"
         style="font-weight:bold;-inkscape-font-specification:'Latin Modern Sans Bold'"
         id="path400" />
      <path
         d="m 217.87545,130.33761 v -5.58933 c 0,-0.14933 -0.10667,-0.27733 -0.256,-0.27733 h -4.416 c -0.14933,0 -0.256,0.128 -0.256,0.27733 v 1.472 c 0,0.14933 0.10667,0.27733 0.256,0.27733 h 1.77067 v 2.77333 c -0.66134,0.14933 -1.344,0.23467 -2.02667,0.23467 -1.32266,0 -2.64533,-0.36267 -3.49866,-1.344 -0.96,-1.13067 -1.17333,-2.66666 -1.17333,-4.15999 0,-1.49334 0.21333,-3.02933 1.17333,-4.16 0.85333,-1.00266 2.176,-1.36533 3.49866,-1.36533 0.72534,0 1.45067,0.10667 2.112,0.384 0.68267,0.27733 1.25867,0.74667 1.77066,1.25867 0.0427,0.0427 0.10667,0.0853 0.192,0.0853 0.128,0 0.23467,-0.10667 0.256,-0.23467 l 0.40534,-2.26133 c 0,-0.14933 -0.064,-0.256 -0.14934,-0.29866 -0.704,-0.34134 -1.45066,-0.64 -2.23999,-0.81067 -0.768,-0.192 -1.55733,-0.256 -2.34667,-0.256 -2.13333,0 -4.33066,0.448 -5.84532,1.92 -1.49333,1.472 -1.96266,3.62666 -1.96266,5.73866 0,2.09066 0.46933,4.24532 1.96266,5.71732 1.51466,1.49333 3.71199,1.92 5.84532,1.92 1.64267,0 3.28533,-0.36267 4.77866,-1.06667 0.0853,-0.0427 0.14934,-0.128 0.14934,-0.23466 z"
         style="font-weight:bold;-inkscape-font-specification:'Latin Modern Sans Bold'"
         id="path402" />
      <path
         d="m 229.58743,130.38027 v -5.71732 c 0,-3.37066 -3.24267,-3.392 -4.30933,-3.392 -1.00267,0 -2.06933,0.0853 -3.49866,0.68267 -0.448,0.192 -0.55467,0.256 -0.55467,0.49066 0,0.14934 0.128,1.38667 0.14933,1.55734 0.0213,0.128 0.128,0.23466 0.27734,0.23466 0.10666,0 0.17066,-0.064 0.23466,-0.128 0.91734,-0.96 1.984,-1.42933 3.30667,-1.42933 1.15199,0 1.49333,0.704 1.49333,1.96266 v 0.74667 c -0.74667,0 -6.33599,0.0427 -6.33599,3.17866 0,1.49333 1.19466,3.072 3.07199,3.072 0.72533,0 2.32533,-0.21334 3.328,-1.68533 v 0.42666 c 0,0.68267 0.14933,1.024 1.02399,1.024 h 0.78934 c 0.81066,0 1.024,-0.27733 1.024,-1.024 z m -2.90133,-2.26133 c 0,1.984 -2.02667,1.984 -2.09067,1.984 -0.896,0 -1.47199,-0.768 -1.47199,-1.57866 0,-2.09067 2.96532,-2.24 3.56266,-2.26133 z"
         style="font-weight:bold;-inkscape-font-specification:'Latin Modern Sans Bold'"
         id="path404" />
      <path
         d="m 247.87005,130.38027 v -5.90932 c 0,-2.19733 -0.93866,-3.072 -3.11466,-3.072 -1.51466,0 -2.68799,0.704 -3.45599,2.112 -0.34133,-2.048 -2.15467,-2.112 -3.05066,-2.112 -0.40534,0 -1.30133,0 -2.26133,0.704 -0.66134,0.49067 -1.088,1.17333 -1.23733,1.49333 h -0.0213 v -1.06666 c 0,-0.68267 -0.14933,-1.024 -1.024,-1.024 h -0.72533 c -0.768,0 -1.024,0.23467 -1.024,1.024 v 7.85065 c 0,0.768 0.23467,1.024 1.024,1.024 h 0.85333 c 0.81067,0 1.024,-0.27733 1.024,-1.024 v -4.71466 c 0,-1.91999 1.30133,-2.73066 2.34666,-2.73066 1.024,0 1.25867,0.448 1.25867,1.57866 v 5.86666 c 0,0.768 0.23467,1.024 1.024,1.024 h 0.85333 c 0.81067,0 1.024,-0.27733 1.024,-1.024 v -4.71466 c 0,-1.91999 1.30133,-2.73066 2.34666,-2.73066 1.024,0 1.25867,0.448 1.25867,1.57866 v 5.86666 c 0,0.768 0.23466,1.024 1.02399,1.024 h 0.85334 c 0.81066,0 1.02399,-0.27733 1.02399,-1.024 z"
         style="font-weight:bold;-inkscape-font-specification:'Latin Modern Sans Bold'"
         id="path406" />
      <path
         d="m 259.39004,125.85761 c 0,-2.75199 -1.27999,-4.58666 -4.45865,-4.58666 -3.41333,0 -5.09866,1.92 -5.09866,5.16266 0,3.49866 2.02666,5.20533 5.37599,5.20533 0.81066,0 2.02666,-0.10667 3.43466,-0.81067 0.46933,-0.23466 0.61867,-0.29866 0.61867,-0.55466 0,-0.14934 -0.064,-0.768 -0.0853,-0.93867 -0.0853,-0.66133 -0.10666,-0.68266 -0.29866,-0.68266 -0.0853,0 -0.128,0 -0.36267,0.21333 -1.25867,1.088 -2.53866,1.23733 -3.22133,1.23733 -2.41066,0 -2.66666,-1.89866 -2.73066,-3.264 h 5.80266 c 0.49066,0 1.02399,-0.0213 1.02399,-0.98133 z m -2.36799,-0.14933 h -4.43733 c 0.064,-1.30133 0.49067,-2.90133 2.34667,-2.90133 1.70666,0 2.02666,1.23733 2.09066,2.90133 z"
         style="font-weight:bold;-inkscape-font-specification:'Latin Modern Sans Bold'"
         id="path408" />
    </g>
  </g>
  <g
     id="layer5"
     style="display:inline"
     transform="translate(5.1981869,-15.941408)">
    <rect
       style="fill:none;fill-opacity:1;stroke:#464646;stroke-width:0.8;stroke-dasharray:none;stroke-opacity:1"
       id="rect3486-6"
       width="23.073696"
       height="7.8047156"
       x="98.60881"
       y="31.047806"
       ry="2.5215268" />
    <g
       aria-label="Game"
       transform="matrix(0.26458333,0,0,0.26458333,62.329234,2.1442251)"
       id="text3428-1-2"
       style="font-size:21.3333px;font-family:'Latin Modern Sans';-inkscape-font-specification:'Latin Modern Sans';white-space:pre;shape-inside:url(#rect3430-3-56);display:inline;fill:#464646;stroke-width:0">
      <path
         d="m 166.33419,130.33761 v -5.58933 c 0,-0.14933 -0.10667,-0.27733 -0.256,-0.27733 h -4.416 c -0.14933,0 -0.256,0.128 -0.256,0.27733 v 1.472 c 0,0.14933 0.10667,0.27733 0.256,0.27733 h 1.77067 v 2.77333 c -0.66133,0.14933 -1.344,0.23467 -2.02667,0.23467 -1.32266,0 -2.64533,-0.36267 -3.49866,-1.344 -0.96,-1.13067 -1.17333,-2.66666 -1.17333,-4.15999 0,-1.49334 0.21333,-3.02933 1.17333,-4.16 0.85333,-1.00266 2.176,-1.36533 3.49866,-1.36533 0.72534,0 1.45067,0.10667 2.112,0.384 0.68267,0.27733 1.25867,0.74667 1.77066,1.25867 0.0427,0.0427 0.10667,0.0853 0.192,0.0853 0.128,0 0.23467,-0.10667 0.256,-0.23467 l 0.40534,-2.26133 c 0,-0.14933 -0.064,-0.256 -0.14934,-0.29866 -0.704,-0.34134 -1.45066,-0.64 -2.23999,-0.81067 -0.768,-0.192 -1.55733,-0.256 -2.34667,-0.256 -2.13333,0 -4.33066,0.448 -5.84532,1.92 -1.49333,1.472 -1.96266,3.62666 -1.96266,5.73866 0,2.09066 0.46933,4.24532 1.96266,5.71732 1.51466,1.49333 3.71199,1.92 5.84532,1.92 1.64267,0 3.28533,-0.36267 4.77866,-1.06667 0.0853,-0.0427 0.14934,-0.128 0.14934,-0.23466 z"
         style="font-weight:bold;-inkscape-font-specification:'Latin Modern Sans Bold'"
         id="path387" />
      <path
         d="m 178.04616,130.38027 v -5.71732 c 0,-3.37066 -3.24266,-3.392 -4.30932,-3.392 -1.00267,0 -2.06933,0.0853 -3.49866,0.68267 -0.448,0.192 -0.55467,0.256 -0.55467,0.49066 0,0.14934 0.128,1.38667 0.14933,1.55734 0.0213,0.128 0.128,0.23466 0.27734,0.23466 0.10666,0 0.17066,-0.064 0.23466,-0.128 0.91733,-0.96 1.984,-1.42933 3.30666,-1.42933 1.152,0 1.49333,0.704 1.49333,1.96266 v 0.74667 c -0.74666,0 -6.33599,0.0427 -6.33599,3.17866 0,1.49333 1.19467,3.072 3.072,3.072 0.72533,0 2.32533,-0.21334 3.32799,-1.68533 v 0.42666 c 0,0.68267 0.14934,1.024 1.024,1.024 h 0.78933 c 0.81067,0 1.024,-0.27733 1.024,-1.024 z m -2.90133,-2.26133 c 0,1.984 -2.02666,1.984 -2.09066,1.984 -0.896,0 -1.472,-0.768 -1.472,-1.57866 0,-2.09067 2.96533,-2.24 3.56266,-2.26133 z"
         style="font-weight:bold;-inkscape-font-specification:'Latin Modern Sans Bold'"
         id="path389" />
      <path
         d="m 196.32879,130.38027 v -5.90932 c 0,-2.19733 -0.93866,-3.072 -3.11466,-3.072 -1.51466,0 -2.68799,0.704 -3.45599,2.112 -0.34134,-2.048 -2.15467,-2.112 -3.05067,-2.112 -0.40533,0 -1.30133,0 -2.26133,0.704 -0.66133,0.49067 -1.08799,1.17333 -1.23733,1.49333 h -0.0213 v -1.06666 c 0,-0.68267 -0.14933,-1.024 -1.024,-1.024 h -0.72533 c -0.768,0 -1.024,0.23467 -1.024,1.024 v 7.85065 c 0,0.768 0.23467,1.024 1.024,1.024 h 0.85333 c 0.81067,0 1.024,-0.27733 1.024,-1.024 v -4.71466 c 0,-1.91999 1.30133,-2.73066 2.34666,-2.73066 1.024,0 1.25867,0.448 1.25867,1.57866 v 5.86666 c 0,0.768 0.23466,1.024 1.024,1.024 h 0.85333 c 0.81066,0 1.024,-0.27733 1.024,-1.024 v -4.71466 c 0,-1.91999 1.30133,-2.73066 2.34666,-2.73066 1.024,0 1.25866,0.448 1.25866,1.57866 v 5.86666 c 0,0.768 0.23467,1.024 1.024,1.024 h 0.85333 c 0.81067,0 1.024,-0.27733 1.024,-1.024 z"
         style="font-weight:bold;-inkscape-font-specification:'Latin Modern Sans Bold'"
         id="path391" />
      <path
         d="m 207.84879,125.85761 c 0,-2.75199 -1.28,-4.58666 -4.45866,-4.58666 -3.41333,0 -5.09866,1.92 -5.09866,5.16266 0,3.49866 2.02666,5.20533 5.37599,5.20533 0.81066,0 2.02666,-0.10667 3.43466,-0.81067 0.46933,-0.23466 0.61867,-0.29866 0.61867,-0.55466 0,-0.14934 -0.064,-0.768 -0.0853,-0.93867 -0.0853,-0.66133 -0.10666,-0.68266 -0.29866,-0.68266 -0.0853,0 -0.128,0 -0.36267,0.21333 -1.25866,1.088 -2.53866,1.23733 -3.22133,1.23733 -2.41066,0 -2.66666,-1.89866 -2.73066,-3.264 h 5.80266 c 0.49066,0 1.024,-0.0213 1.024,-0.98133 z m -2.368,-0.14933 h -4.43733 c 0.064,-1.30133 0.49067,-2.90133 2.34667,-2.90133 1.70666,0 2.02666,1.23733 2.09066,2.90133 z"
         style="font-weight:bold;-inkscape-font-specification:'Latin Modern Sans Bold'"
         id="path393" />
    </g>
  </g>
  <g
     id="layer3"
     transform="translate(26.99413,-32.397933)">
    <g
       id="g16210"
       transform="translate(0.26715397,-0.15800913)">
      <path
         style="fill:none;fill-opacity:1;stroke:#464646;stroke-width:0.65;stroke-linecap:butt;stroke-dasharray:none;stroke-opacity:1"
         d="m 138.67693,30.57471 h 9.18142"
         id="path23292-4-6"
         transform="translate(0.20605796,14.266451)" />
      <rect
         style="fill:#464646;fill-opacity:1;stroke:none;stroke-width:0.829;stroke-dasharray:none;stroke-opacity:1"
         id="rect23079"
         width="5.3499317"
         height="1.5915496"
         x="140.79874"
         y="43.08749"
         ry="0" />
      <rect
         style="display:inline;fill:none;fill-opacity:1;stroke:#464646;stroke-width:0.8;stroke-dasharray:none;stroke-opacity:1"
         id="rect20841"
         width="13.605074"
         height="7.1092625"
         x="136.67116"
         y="35.804256"
         ry="0.10810354" />
    </g>
  </g>
  <g
     id="layer3-2"
     transform="translate(19.151576,-23.815158)">
    <g
       id="g16210-7"
       transform="translate(8.1097091,3.4523808)">
      <path
         style="fill:none;fill-opacity:1;stroke:#464646;stroke-width:0.65;stroke-linecap:butt;stroke-dasharray:none;stroke-opacity:1"
         d="m 138.67693,30.57471 h 9.18142"
         id="path23292-4-6-0"
         transform="translate(0.20605796,14.266451)" />
      <rect
         style="fill:#464646;fill-opacity:1;stroke:none;stroke-width:0.829;stroke-dasharray:none;stroke-opacity:1"
         id="rect23079-9"
         width="5.3499317"
         height="1.5915496"
         x="140.79874"
         y="43.08749"
         ry="0" />
      <rect
         style="display:inline;fill:none;fill-opacity:1;stroke:#464646;stroke-width:0.8;stroke-dasharray:none;stroke-opacity:1"
         id="rect20841-3"
         width="13.605074"
         height="7.1092625"
         x="136.67116"
         y="35.804256"
         ry="0.10810354" />
    </g>
  </g>
  <g
     id="layer3-2-6"
     transform="translate(11.522769,-11.812276)">
    <g
       id="g16210-7-0"
       transform="translate(15.73852,3.6426628)">
      <path
         style="fill:none;fill-opacity:1;stroke:#464646;stroke-width:0.65;stroke-linecap:butt;stroke-dasharray:none;stroke-opacity:1"
         d="m 138.67693,30.57471 h 9.18142"
         id="path23292-4-6-0-6"
         transform="translate(0.20605796,14.266451)" />
      <rect
         style="fill:#464646;fill-opacity:1;stroke:none;stroke-width:0.829;stroke-dasharray:none;stroke-opacity:1"
         id="rect23079-9-2"
         width="5.3499317"
         height="1.5915496"
         x="140.79874"
         y="43.08749"
         ry="0" />
      <rect
         style="display:inline;fill:none;fill-opacity:1;stroke:#464646;stroke-width:0.8;stroke-dasharray:none;stroke-opacity:1"
         id="rect20841-3-6"
         width="13.605074"
         height="7.1092625"
         x="136.67116"
         y="35.804256"
         ry="0.10810354" />
    </g>
    <g
       aria-label="Players"
       transform="matrix(0.26458333,0,0,0.26458333,110.78763,19.60092)"
       id="text3428-1-4-1-6"
       style="font-size:18.6667px;font-family:'Latin Modern Sans';-inkscape-font-specification:'Latin Modern Sans';white-space:pre;shape-inside:url(#rect3430-3-7-9-3);display:inline;fill:#464646;stroke-width:0">
      <path
         d="m 164.26223,119.99898 c 0,-2.81867 -1.82934,-4.032 -4.70401,-4.032 h -4.66667 c -0.672,0 -0.89601,0.20533 -0.89601,0.896 v 11.16269 c 0,0.672 0.20534,0.896 0.89601,0.896 h 0.952 c 0.70933,0 0.896,-0.24267 0.896,-0.896 v -4.10668 h 2.83734 c 2.93067,0 4.68534,-1.232 4.68534,-3.92001 z m -2.59467,0 c 0,1.25067 -0.20534,2.44534 -2.70667,2.44534 h -2.27734 v -4.87201 h 2.296 c 2.44534,0 2.68801,1.12 2.68801,2.42667 z"
         style="font-weight:bold;-inkscape-font-specification:'Latin Modern Sans Bold'"
         id="path411" />
      <path
         d="m 169.04089,128.02567 v -11.16269 c 0,-0.59734 -0.13067,-0.896 -0.896,-0.896 h -0.69067 c -0.672,0 -0.896,0.20533 -0.896,0.896 v 11.16269 c 0,0.672 0.20533,0.896 0.896,0.896 h 0.69067 c 0.70933,0 0.896,-0.24267 0.896,-0.896 z"
         style="font-weight:bold;-inkscape-font-specification:'Latin Modern Sans Bold'"
         id="path413" />
      <path
         d="m 179.04625,128.02567 v -5.00268 c 0,-2.94934 -2.83734,-2.96801 -3.77067,-2.96801 -0.87734,0 -1.81067,0.0747 -3.06134,0.59734 -0.392,0.168 -0.48534,0.224 -0.48534,0.42933 0,0.13067 0.112,1.21334 0.13067,1.36267 0.0187,0.112 0.112,0.20534 0.24267,0.20534 0.0933,0 0.14933,-0.056 0.20533,-0.112 0.80267,-0.84001 1.736,-1.25067 2.89334,-1.25067 1.008,0 1.30667,0.616 1.30667,1.71733 v 0.65334 c -0.65334,0 -5.54401,0.0373 -5.54401,2.78134 0,1.30666 1.04533,2.688 2.688,2.688 0.63467,0 2.03467,-0.18667 2.91201,-1.47467 v 0.37334 c 0,0.59733 0.13067,0.896 0.896,0.896 h 0.69067 c 0.70933,0 0.896,-0.24267 0.896,-0.896 z m -2.53867,-1.97868 c 0,1.73601 -1.77334,1.73601 -1.82934,1.73601 -0.784,0 -1.288,-0.672 -1.288,-1.38134 0,-1.82933 2.59467,-1.96 3.11734,-1.97867 z"
         style="font-weight:bold;-inkscape-font-specification:'Latin Modern Sans Bold'"
         id="path415" />
      <path
         d="m 188.24892,120.87632 c 0,-0.504 -0.504,-0.504 -0.74666,-0.504 h -0.41067 c -0.29867,0 -0.70934,0 -0.98934,0.42933 -0.056,0.0933 -1.568,4.21868 -1.66133,5.46935 h -0.0187 c -0.0933,-0.91467 -0.85867,-2.65068 -1.66134,-4.44268 -0.52266,-1.176 -0.65333,-1.456 -1.58667,-1.456 h -0.48533 c -0.26133,0 -0.728,0 -0.728,0.48533 0,0.0747 0.056,0.20534 0.0933,0.29867 l 3.52801,7.76535 c -0.14933,0.392 -0.20533,0.59733 -0.26133,0.784 -0.22401,0.616 -0.54134,1.456 -1.54934,1.456 -0.616,0 -1.04534,-0.26133 -1.25067,-0.392 -0.0933,-0.056 -0.13067,-0.0747 -0.18667,-0.0747 -0.0933,0 -0.24266,0.056 -0.24266,0.28 0,0.14934 0.112,1.43734 0.168,1.51201 0.168,0.224 1.176,0.26133 1.47467,0.26133 2.31467,0 3.22933,-2.20267 3.37867,-2.65067 l 3.04267,-8.84802 c 0.0933,-0.24266 0.0933,-0.28 0.0933,-0.37333 z"
         style="font-weight:bold;-inkscape-font-specification:'Latin Modern Sans Bold'"
         id="path417" />
      <path
         d="m 197.1156,124.06832 c 0,-2.408 -1.12,-4.01334 -3.90134,-4.01334 -2.98667,0 -4.46134,1.68001 -4.46134,4.51735 0,3.06133 1.77334,4.55467 4.70401,4.55467 0.70934,0 1.77334,-0.0933 3.00534,-0.70933 0.41067,-0.20534 0.54133,-0.26134 0.54133,-0.48534 0,-0.13067 -0.056,-0.672 -0.0747,-0.82133 -0.0747,-0.57867 -0.0933,-0.59734 -0.26134,-0.59734 -0.0747,0 -0.112,0 -0.31733,0.18667 -1.10134,0.952 -2.22134,1.08267 -2.81867,1.08267 -2.10934,0 -2.33334,-1.66134 -2.38934,-2.85601 h 5.07734 c 0.42934,0 0.896,-0.0187 0.896,-0.85867 z m -2.072,-0.13066 h -3.88267 c 0.056,-1.13867 0.42933,-2.53867 2.05333,-2.53867 1.49334,0 1.77334,1.08267 1.82934,2.53867 z"
         style="font-weight:bold;-inkscape-font-specification:'Latin Modern Sans Bold'"
         id="path419" />
      <path
         d="m 204.35828,121.54832 v -0.87733 c 0,-0.37334 0,-0.50401 -0.336,-0.50401 -0.52267,0 -1.88534,0.18667 -2.76267,2.20267 h -0.0187 v -1.21333 c 0,-0.59733 -0.13067,-0.896 -0.896,-0.896 h -0.59734 c -0.672,0 -0.896,0.20533 -0.896,0.896 v 6.86935 c 0,0.672 0.20534,0.896 0.896,0.896 h 0.69067 c 0.70934,0 0.896,-0.24267 0.896,-0.896 v -3.39734 c 0,-1.77334 1.47467,-2.50134 2.65067,-2.57601 0.336,-0.0187 0.37334,-0.0187 0.37334,-0.504 z"
         style="font-weight:bold;-inkscape-font-specification:'Latin Modern Sans Bold'"
         id="path421" />
      <path
         d="m 212.04895,126.28966 c 0,-1.04533 -0.56,-1.69867 -0.896,-1.99733 -0.74667,-0.67201 -1.4,-0.78401 -2.184,-0.93334 -1.02667,-0.18667 -1.77334,-0.336 -1.77334,-1.064 0,-0.76534 0.616,-0.91467 1.344,-0.91467 1.25067,0 1.92267,0.46667 2.40801,0.87733 0.18667,0.18667 0.224,0.18667 0.29867,0.18667 0.18666,0 0.224,-0.168 0.24266,-0.24267 0.0373,-0.14933 0.224,-1.19466 0.224,-1.288 0,-0.29866 -0.98933,-0.56 -1.19467,-0.63467 -0.74666,-0.20533 -1.344,-0.224 -1.82933,-0.224 -0.84,0 -3.34134,0 -3.34134,2.66934 0,0.91467 0.41067,1.47467 0.91467,1.92267 0.65333,0.59734 1.38133,0.728 2.44533,0.93334 0.54134,0.0933 1.49334,0.26133 1.49334,1.08267 0,0.87733 -0.728,1.008 -1.456,1.008 -0.82134,0 -1.86667,-0.24267 -2.74401,-1.288 -0.0933,-0.0933 -0.14933,-0.14934 -0.26133,-0.14934 -0.18667,0 -0.224,0.168 -0.24267,0.28 -0.0373,0.26134 -0.26133,1.32534 -0.26133,1.51201 0,0.336 1.4,0.784 1.4,0.784 1.02667,0.31733 1.792,0.31733 2.10934,0.31733 0.952,0 3.304,-0.0747 3.304,-2.83734 z"
         style="font-weight:bold;-inkscape-font-specification:'Latin Modern Sans Bold'"
         id="path423" />
    </g>
  </g>
  <g
     id="layer3-2-6-1"
     transform="translate(37.826133,-22.618847)">
    <g
       aria-label="Observer"
       transform="matrix(0.26458333,0,0,0.26458333,108.55111,30.407491)"
       id="text3428-1-4-1"
       style="font-size:18.6667px;font-family:'Latin Modern Sans';-inkscape-font-specification:'Latin Modern Sans';white-space:pre;shape-inside:url(#rect3430-3-7-9);display:inline;fill:#464646;stroke-width:0">
      <path
         d="m 165.9609,122.53766 c 0,-3.75201 -1.36267,-6.98135 -6.25334,-6.98135 -5.17068,0 -6.27202,3.56534 -6.27202,6.98135 0,3.49067 1.21334,6.79467 6.25335,6.79467 4.81601,0 6.27201,-2.968 6.27201,-6.79467 z m -2.74401,-0.29867 c 0,1.66133 0,5.60001 -3.50933,5.60001 -3.52801,0 -3.52801,-3.90134 -3.52801,-5.60001 0,-1.64267 0,-5.22668 3.50934,-5.22668 3.528,0 3.528,3.54668 3.528,5.22668 z"
         style="font-weight:bold;-inkscape-font-specification:'Latin Modern Sans Bold';display:inline"
         id="path426" />
      <path
         d="m 176.88093,124.60966 c 0,-0.896 0,-4.44268 -3.50934,-4.44268 -1.53067,0 -2.464,0.85867 -2.632,1.04534 v -4.34934 c 0,-0.59734 -0.13067,-0.896 -0.896,-0.896 h -0.69067 c -0.672,0 -0.896,0.20533 -0.896,0.896 v 11.16269 c 0,0.672 0.20533,0.896 0.896,0.896 h 0.74667 c 0.31733,0 0.87733,0 0.896,-0.728 0.85867,0.93333 1.81067,0.93333 2.10933,0.93333 3.97601,0 3.97601,-3.58401 3.97601,-4.51734 z m -2.53867,0.0187 c 0,1.38133 0,3.15467 -2.09067,3.15467 -0.784,0 -1.25067,-0.46667 -1.456,-0.728 v -4.89068 c 0.24266,-0.224 0.80267,-0.65333 1.66133,-0.65333 1.88534,0 1.88534,1.71733 1.88534,3.11734 z"
         style="font-weight:bold;-inkscape-font-specification:'Latin Modern Sans Bold';display:inline"
         id="path428" />
      <path
         d="m 184.9823,126.28966 c 0,-1.04533 -0.56001,-1.69867 -0.89601,-1.99733 -0.74666,-0.67201 -1.4,-0.78401 -2.184,-0.93334 -1.02667,-0.18667 -1.77334,-0.336 -1.77334,-1.064 0,-0.76534 0.616,-0.91467 1.34401,-0.91467 1.25067,0 1.92267,0.46667 2.408,0.87733 0.18667,0.18667 0.224,0.18667 0.29867,0.18667 0.18666,0 0.224,-0.168 0.24266,-0.24267 0.0373,-0.14933 0.22401,-1.19466 0.22401,-1.288 0,-0.29866 -0.98934,-0.56 -1.19467,-0.63467 -0.74667,-0.20533 -1.34401,-0.224 -1.82934,-0.224 -0.84,0 -3.34134,0 -3.34134,2.66934 0,0.91467 0.41067,1.47467 0.91467,1.92267 0.65333,0.59734 1.38133,0.728 2.44534,0.93334 0.54133,0.0933 1.49333,0.26133 1.49333,1.08267 0,0.87733 -0.728,1.008 -1.456,1.008 -0.82133,0 -1.86667,-0.24267 -2.74401,-1.288 -0.0933,-0.0933 -0.14933,-0.14934 -0.26133,-0.14934 -0.18667,0 -0.224,0.168 -0.24267,0.28 -0.0373,0.26134 -0.26133,1.32534 -0.26133,1.51201 0,0.336 1.4,0.784 1.4,0.784 1.02667,0.31733 1.79201,0.31733 2.10934,0.31733 0.952,0 3.30401,-0.0747 3.30401,-2.83734 z"
         style="font-weight:bold;-inkscape-font-specification:'Latin Modern Sans Bold';display:inline"
         id="path430" />
      <path
         d="m 194.40899,124.06832 c 0,-2.408 -1.12,-4.01334 -3.90134,-4.01334 -2.98667,0 -4.46134,1.68001 -4.46134,4.51735 0,3.06133 1.77334,4.55467 4.70401,4.55467 0.70933,0 1.77334,-0.0933 3.00534,-0.70933 0.41067,-0.20534 0.54133,-0.26134 0.54133,-0.48534 0,-0.13067 -0.056,-0.672 -0.0747,-0.82133 -0.0747,-0.57867 -0.0933,-0.59734 -0.26134,-0.59734 -0.0747,0 -0.112,0 -0.31733,0.18667 -1.10134,0.952 -2.22134,1.08267 -2.81867,1.08267 -2.10934,0 -2.33334,-1.66134 -2.38934,-2.85601 h 5.07734 c 0.42934,0 0.896,-0.0187 0.896,-0.85867 z m -2.072,-0.13066 h -3.88267 c 0.056,-1.13867 0.42933,-2.53867 2.05333,-2.53867 1.49334,0 1.77334,1.08267 1.82934,2.53867 z"
         style="font-weight:bold;-inkscape-font-specification:'Latin Modern Sans Bold';display:inline"
         id="path432" />
      <path
         d="m 201.65167,121.54832 v -0.87733 c 0,-0.37334 0,-0.50401 -0.336,-0.50401 -0.52267,0 -1.88534,0.18667 -2.76267,2.20267 h -0.0187 v -1.21333 c 0,-0.59733 -0.13067,-0.896 -0.896,-0.896 h -0.5973 c -0.67201,0 -0.89601,0.20533 -0.89601,0.896 v 6.86935 c 0,0.672 0.20534,0.896 0.89601,0.896 h 0.69066 c 0.70934,0 0.896,-0.24267 0.896,-0.896 v -3.39734 c 0,-1.77334 1.47467,-2.50134 2.65068,-2.57601 0.336,-0.0187 0.37333,-0.0187 0.37333,-0.504 z"
         style="font-weight:bold;-inkscape-font-specification:'Latin Modern Sans Bold';display:inline"
         id="path434" />
      <path
         d="m 210.77968,120.89499 c 0,-0.52267 -0.46667,-0.52267 -0.74667,-0.52267 h -0.392 c -0.784,0 -0.98933,0.28 -1.15733,0.80267 l -1.84801,5.63734 -1.848,-5.63734 c -0.13067,-0.392 -0.26133,-0.80267 -1.15733,-0.80267 h -0.44801 c -0.28,0 -0.74666,0 -0.74666,0.52267 0,0.056 0,0.0933 0.0933,0.35466 l 2.22134,6.88802 c 0.26133,0.784 0.84,0.784 1.176,0.784 h 1.36267 c 0.336,0 0.91467,0 1.176,-0.784 l 2.22134,-6.88802 c 0.0933,-0.26133 0.0933,-0.29866 0.0933,-0.35466 z"
         style="font-weight:bold;-inkscape-font-specification:'Latin Modern Sans Bold';display:inline"
         id="path436" />
      <path
         d="m 220.22503,124.06832 c 0,-2.408 -1.12,-4.01334 -3.90134,-4.01334 -2.98667,0 -4.46134,1.68001 -4.46134,4.51735 0,3.06133 1.77334,4.55467 4.70401,4.55467 0.70933,0 1.77334,-0.0933 3.00534,-0.70933 0.41067,-0.20534 0.54133,-0.26134 0.54133,-0.48534 0,-0.13067 -0.056,-0.672 -0.0747,-0.82133 -0.0747,-0.57867 -0.0933,-0.59734 -0.26134,-0.59734 -0.0747,0 -0.112,0 -0.31733,0.18667 -1.10134,0.952 -2.22134,1.08267 -2.81867,1.08267 -2.10934,0 -2.33334,-1.66134 -2.38934,-2.85601 h 5.07734 c 0.42934,0 0.896,-0.0187 0.896,-0.85867 z m -2.072,-0.13066 h -3.88267 c 0.056,-1.13867 0.42933,-2.53867 2.05333,-2.53867 1.49334,0 1.77334,1.08267 1.82934,2.53867 z"
         style="font-weight:bold;-inkscape-font-specification:'Latin Modern Sans Bold';display:inline"
         id="path438" />
      <path
         d="m 227.4677,121.54832 v -0.87733 c 0,-0.37334 0,-0.50401 -0.336,-0.50401 -0.52267,0 -1.88533,0.18667 -2.76267,2.20267 h -0.0187 v -1.21333 c 0,-0.59733 -0.13066,-0.896 -0.896,-0.896 H 222.857 c -0.672,0 -0.896,0.20533 -0.896,0.896 v 6.86935 c 0,0.672 0.20533,0.896 0.896,0.896 h 0.69067 c 0.70933,0 0.896,-0.24267 0.896,-0.896 v -3.39734 c 0,-1.77334 1.47467,-2.50134 2.65067,-2.57601 0.336,-0.0187 0.37333,-0.0187 0.37333,-0.504 z"
         style="font-weight:bold;-inkscape-font-specification:'Latin Modern Sans Bold';display:inline"
         id="path440" />
    </g>
    <g
       id="g17994"
       transform="translate(-0.00367513,-0.15800913)">
      <path
         style="fill:none;fill-opacity:1;stroke:#464646;stroke-width:0.65;stroke-linecap:butt;stroke-dasharray:none;stroke-opacity:1"
         d="m 154.35435,59.448405 h 9.18142"
         id="path23292-4-6-0-6-7" />
      <rect
         style="fill:#464646;fill-opacity:1;stroke:none;stroke-width:0.829;stroke-dasharray:none;stroke-opacity:1"
         id="rect23079-9-2-9"
         width="5.3499317"
         height="1.5915496"
         x="156.2701"
         y="57.694733"
         ry="0" />
      <rect
         style="display:inline;fill:none;fill-opacity:1;stroke:#464646;stroke-width:0.8;stroke-dasharray:none;stroke-opacity:1"
         id="rect20841-3-6-2"
         width="13.605074"
         height="7.1092625"
         x="152.14252"
         y="50.411499"
         ry="0.10810354" />
    </g>
  </g>
  <g
     id="layer7"
     transform="translate(5.1981869,-15.941408)">
    <g
       id="g17880"
       transform="translate(0.26715397,3.016991)">
      <path
         style="fill:none;fill-opacity:1;stroke:#13aa39;stroke-width:0.65;stroke-linecap:butt;stroke-dasharray:none;stroke-opacity:1"
         d="m 160.67893,68.466273 h 9.18142"
         id="path23292-4-6-0-3" />
      <rect
         style="fill:#13aa39;fill-opacity:1;stroke:none;stroke-width:0.829;stroke-dasharray:none;stroke-opacity:1"
         id="rect23079-9-7"
         width="5.3499317"
         height="1.5915496"
         x="162.59468"
         y="66.712601"
         ry="0" />
      <rect
         style="display:inline;fill:none;fill-opacity:1;stroke:#13aa39;stroke-width:0.8;stroke-dasharray:none;stroke-opacity:1"
         id="rect20841-3-5"
         width="13.605074"
         height="7.1092625"
         x="158.4671"
         y="59.429367"
         ry="0.10810354" />
    </g>
  </g>
  <g
     id="layer8"
     transform="translate(5.1981869,-15.941408)"
     style="display:inline">
    <g
       id="g17885"
       transform="translate(0.26715397,3.016991)">
      <path
         style="fill:none;fill-opacity:1;stroke:#13aa39;stroke-width:0.65;stroke-linecap:butt;stroke-dasharray:none;stroke-opacity:1"
         d="m 160.67893,80.659436 h 9.18142"
         id="path23292-4-6-0-6-2" />
      <rect
         style="fill:#13aa39;fill-opacity:1;stroke:none;stroke-width:0.829;stroke-dasharray:none;stroke-opacity:1"
         id="rect23079-9-2-2"
         width="5.3499317"
         height="1.5915496"
         x="162.59468"
         y="78.905762"
         ry="0" />
      <rect
         style="display:inline;fill:none;fill-opacity:1;stroke:#13aa39;stroke-width:0.8;stroke-dasharray:none;stroke-opacity:1"
         id="rect20841-3-6-8"
         width="13.605074"
         height="7.1092625"
         x="158.4671"
         y="71.622528"
         ry="0.10810354" />
    </g>
  </g>
  <g
     id="layer9"
     transform="translate(5.1981869,-15.941408)"
     style="display:inline">
    <path
       style="display:inline;fill:none;stroke:#13aa39;stroke-width:0.799999;stroke-linecap:butt;stroke-linejoin:round;stroke-dasharray:none;stroke-dashoffset:0;stroke-opacity:1"
       d="m 158.73431,66.000989 c -15.67425,0 -15.67425,6.087057 -31.3485,6.077532"
       id="path4190" />
    <path
       style="display:inline;fill:none;stroke:#464646;stroke-width:0.8;stroke-linejoin:round;stroke-miterlimit:4.2;stroke-dasharray:none;stroke-opacity:1;paint-order:stroke fill markers"
       d="m 158.73426,34.937519 -37.05175,0.01264"
       id="path515" />
    <path
       style="display:inline;fill:none;stroke:#13aa39;stroke-width:0.799999;stroke-linecap:butt;stroke-linejoin:round;stroke-dasharray:none;stroke-dashoffset:0;stroke-opacity:1"
       d="m 158.73431,78.19415 c -15.67425,0 -15.67425,-6.115629 -31.3485,-6.115629"
       id="path4192" />
    <path
       style="display:inline;fill:none;stroke:#464646;stroke-width:0.799999;stroke-linecap:butt;stroke-linejoin:round;stroke-dasharray:none;stroke-dashoffset:0"
       d="m 172.33938,47.130684 12.42746,-3e-6"
       id="path7921" />
    <path
       style="display:inline;fill:none;stroke:#464646;stroke-width:0.8;stroke-linecap:butt;stroke-linejoin:round;stroke-miterlimit:4.2;stroke-dasharray:none;stroke-opacity:1;paint-order:stroke fill markers"
       d="m 50.016658,53.514339 c 24.296074,2e-6 24.296074,-18.564176 48.592148,-18.564176"
       id="path1766" />
    <path
       style="display:inline;fill:none;stroke:#464646;stroke-width:0.799999;stroke-linecap:butt;stroke-linejoin:round;stroke-miterlimit:4.2;stroke-dasharray:none;stroke-opacity:1;paint-order:stroke fill markers"
       d="m 158.73426,22.744354 c -18.52588,0 -18.52588,12.205809 -37.05175,12.205809"
       id="path1822" />
    <path
       style="display:inline;fill:none;stroke:#464646;stroke-width:0.799999;stroke-linecap:butt;stroke-linejoin:round;stroke-miterlimit:4.2;stroke-dasharray:none;stroke-opacity:1;paint-order:stroke fill markers"
       d="m 121.68251,34.950163 c 18.52587,0 18.52587,12.180521 37.05175,12.180521"
       id="path1824" />
  </g>
  <g
     id="layer4"
     transform="translate(5.1981869,-15.941408)">
    <g
       id="g3338">
      <path
         style="display:inline;fill:#13aa39;fill-opacity:1;stroke:none;stroke-width:0.799999;stroke-linecap:round;stroke-linejoin:round;stroke-miterlimit:4.2;paint-order:stroke fill markers"
         id="path383"
         d="m 73.407618,66.298465 a 1.4622028,1.4622028 0 0 1 2.0506,-0.255568 1.4622028,1.4622028 0 0 1 0.258348,2.050252 1.4622028,1.4622028 0 0 1 -2.0499,0.261128 1.4622028,1.4622028 0 0 1 -0.263907,-2.049544"
         transform="rotate(-0.81871737)" />
      <path
         style="display:inline;fill:none;fill-opacity:1;stroke:#464646;stroke-width:0.7;stroke-linecap:round;stroke-linejoin:round;stroke-miterlimit:4.2;stroke-dasharray:none;stroke-opacity:1;paint-order:stroke fill markers"
         id="path1827"
         d="m 76.70686,67.058687 a 2.2436516,2.2436516 0 0 1 -2.297183,-2.0007 2.2436516,2.2436516 0 0 1 1.814743,-2.446744 2.2436516,2.2436516 0 0 1 2.581291,1.617649"
         transform="rotate(0.98607813)" />
      <path
         style="display:none;fill:none;fill-opacity:1;stroke:#464646;stroke-width:0.7;stroke-linecap:round;stroke-linejoin:round;stroke-miterlimit:4.2;stroke-dasharray:none;stroke-opacity:1;paint-order:stroke fill markers"
         id="path1827-7"
         d="m 84.553388,64.263196 a 2.2436516,2.2436516 0 0 1 -1.504336,2.730172 2.2436516,2.2436516 0 0 1 -2.780969,-1.408217 2.2436516,2.2436516 0 0 1 1.310384,-2.828384 2.2436516,2.2436516 0 0 1 2.872359,1.210957"
         transform="rotate(0.98607813)" />
    </g>
    <path
       style="display:none;fill:none;stroke:#464646;stroke-width:0.799999;stroke-linecap:butt;stroke-linejoin:round;stroke-miterlimit:4.2;stroke-dasharray:none;stroke-opacity:1;paint-order:stroke fill markers"
       d="m 50.016658,53.514339 c 21.444791,2e-6 21.444791,18.564181 42.889582,18.564179"
       id="path1826" />
    <path
       style="fill:none;stroke:#13aa39;stroke-width:0.799999;stroke-linecap:butt;stroke-linejoin:round;stroke-miterlimit:4.2;stroke-dasharray:none;stroke-opacity:1;paint-order:stroke fill markers"
       d="m 75.551544,66.193562 c 4.275349,3.268429 9.303754,5.884957 17.354696,5.884956"
       id="path1826-3" />
    <path
       style="display:inline;fill:none;stroke:#464646;stroke-width:0.799999;stroke-linecap:butt;stroke-linejoin:round;stroke-miterlimit:4.2;stroke-dasharray:none;stroke-opacity:1;paint-order:stroke fill markers"
       d="m 50.016658,53.514339 c 12.313405,10e-7 17.556564,6.120523 23.848819,11.33287"
       id="path1826-3-5" />
  </g>
</svg>
